<svg width="33" height="33" viewBox="0 0 33 33" fill="none" xmlns="http://www.w3.org/2000/svg">
<circle opacity="0.2" cx="16.75" cy="16.5" r="16" fill="#CB3CFF"/>
<path d="M23.4167 8.5H10.0833C9.72971 8.5 9.39057 8.64048 9.14052 8.89052C8.89048 9.14057 8.75 9.47971 8.75 9.83333V20.5V23.1667C8.75 23.5203 8.89048 23.8594 9.14052 24.1095C9.39057 24.3595 9.72971 24.5 10.0833 24.5H23.4167C23.7703 24.5 24.1094 24.3595 24.3595 24.1095C24.6095 23.8594 24.75 23.5203 24.75 23.1667V9.83333C24.75 9.47971 24.6095 9.14057 24.3595 8.89052C24.1094 8.64048 23.7703 8.5 23.4167 8.5ZM21.025 15.1667C20.774 14.9193 20.4357 14.7807 20.0833 14.7807C19.7309 14.7807 19.3927 14.9193 19.1417 15.1667L15.4167 18.8917L13.6917 17.1667C13.4406 16.9193 13.1024 16.7807 12.75 16.7807C12.3976 16.7807 12.0594 16.9193 11.8083 17.1667L10.0833 18.8917V9.83333H23.4167V17.5583L21.025 15.1667Z" fill="#CB3CFF"/>
</svg>
